<svg width="240" height="80" viewBox="0 0 240 80" fill="none" xmlns="http://www.w3.org/2000/svg" role="img" aria-labelledby="title">
  <title id="title">بنظام</title>
  <path d="M38 14C39.7 14 41 14.2 41 16.1L40.4 25.4C40.4 26.9 39.4 27.7 38 27.7H28.3C26.6 27.7 25.3 27.5 25.3 25.6L25.9 16.3C25.9 14.8 26.9 14 28.3 14H38Z" fill="#D97706"/>
  <path fill-rule="evenodd" clip-rule="evenodd" d="M17.2 25C17.5 25 17.7 25 18 25.1C22.1 25.3 25.2 28.8 25 32.9L24.5 51H43.2L43.9 32.2C44.1 28.2 47.7 25 51.7 25H65.6C66.5 25 67 25.6 67 26.9L66.7 35.8C66.7 37.1 66.1 37.7 65.2 37.7H58.4L57.9 55.2C57.9 55.5 57.9 55.8 57.9 56C57.8 60 53.8 63.4 49.8 63.4H17.1C12.9 63.2 9.8 59.7 10 55.6C10 55.4 10 55.2 10 55L10.7 37.7H3.2C1.4 37.7 0.3 37.1 0.3 35.8L0.9 26.9C0.9 25.6 2 25 3.8 25H17.2Z" fill="#F5F0E6"/>
  <text x="232" y="56" text-anchor="end" fill="#F5F0E6" font-family="Tahoma, Arial, sans-serif" font-size="48" font-weight="700" letter-spacing="0">بنظام</text>
</svg>
