<svg width="732" height="192" viewBox="0 0 732 192" fill="none" xmlns="http://www.w3.org/2000/svg">
<path d="M111.867 29C115.879 29 119 29.4454 119 33.9033L117.663 55.7471C117.663 59.1938 115.314 61.0967 111.867 61.0967H89.1318C85.1199 61.0967 82 60.6502 82 56.1924L83.3369 34.3496C83.3369 30.9029 85.6852 29.0001 89.1318 29H111.867Z" fill="#D97706"/>
<path d="M271.376 74.184C270.437 79.4747 268.219 83.912 264.72 87.496C261.307 90.9947 257.211 93.384 252.432 94.664C256.784 95.688 260.155 97.7787 262.544 100.936C265.019 104.093 266.256 107.848 266.256 112.2C266.256 113.565 266.128 114.973 265.872 116.424C264.592 124.104 260.923 130.12 254.864 134.472C248.805 138.824 240.955 141 231.312 141H186.64L202.64 50.76H245.904C254.096 50.76 260.453 52.424 264.976 55.752C269.499 58.9947 271.76 63.6453 271.76 69.704C271.76 71.1547 271.632 72.648 271.376 74.184ZM244.88 78.792C244.965 78.3653 245.008 77.7253 245.008 76.872C245.008 72.776 242.32 70.728 236.944 70.728H224.272L221.456 86.728H234.128C240.357 86.728 243.941 84.0827 244.88 78.792ZM240.912 112.84C240.997 112.413 241.04 111.816 241.04 111.048C241.04 108.915 240.315 107.293 238.864 106.184C237.499 104.989 235.451 104.392 232.72 104.392H218.256L215.44 120.904H230.032C236.261 120.904 239.888 118.216 240.912 112.84Z" fill="#292524"/>
<path d="M296.84 62.536C292.403 62.536 288.819 61.3413 286.088 58.952C283.443 56.4773 282.12 53.4053 282.12 49.736C282.12 45.9813 283.443 42.8667 286.088 40.392C288.819 37.9173 292.403 36.68 296.84 36.68C301.192 36.68 304.691 37.9173 307.336 40.392C310.067 42.8667 311.432 45.9813 311.432 49.736C311.432 53.4053 310.067 56.4773 307.336 58.952C304.691 61.3413 301.192 62.536 296.84 62.536ZM309.256 69.192V141H284.168V69.192H309.256ZM370.519 68.552C378.796 68.552 385.367 71.3253 390.231 76.872C395.095 82.3333 397.527 89.7573 397.527 99.144V141H372.439V102.472C372.439 98.376 371.372 95.176 369.239 92.872C367.106 90.4827 364.247 89.288 360.663 89.288C356.908 89.288 353.964 90.4827 351.831 92.872C349.698 95.176 348.631 98.376 348.631 102.472V141H323.543V69.192H348.631V79.432C350.85 76.1893 353.836 73.5867 357.591 71.624C361.346 69.576 365.655 68.552 370.519 68.552ZM423.965 62.536C419.528 62.536 415.944 61.3413 413.213 58.952C410.568 56.4773 409.245 53.4053 409.245 49.736C409.245 45.9813 410.568 42.8667 413.213 40.392C415.944 37.9173 419.528 36.68 423.965 36.68C428.317 36.68 431.816 37.9173 434.461 40.392C437.192 42.8667 438.557 45.9813 438.557 49.736C438.557 53.4053 437.192 56.4773 434.461 58.952C431.816 61.3413 428.317 62.536 423.965 62.536ZM436.381 69.192V141H411.293V69.192H436.381ZM474.476 120.136H505.068V141H446.828V121.16L475.372 90.056H447.084V69.192H504.044V89.032L474.476 120.136ZM511.447 105.032C511.447 97.608 512.77 91.1227 515.415 85.576C518.146 80.0293 521.815 75.7627 526.423 72.776C531.116 69.7893 536.322 68.296 542.039 68.296C546.988 68.296 551.255 69.2773 554.839 71.24C558.423 73.2027 561.196 75.848 563.159 79.176V69.192H588.247V141H563.159V131.016C561.196 134.344 558.38 136.989 554.711 138.952C551.127 140.915 546.903 141.896 542.039 141.896C536.322 141.896 531.116 140.403 526.423 137.416C521.815 134.429 518.146 130.163 515.415 124.616C512.77 118.984 511.447 112.456 511.447 105.032ZM563.159 105.032C563.159 100.424 561.879 96.7973 559.319 94.152C556.844 91.5067 553.772 90.184 550.103 90.184C546.348 90.184 543.234 91.5067 540.759 94.152C538.284 96.712 537.047 100.339 537.047 105.032C537.047 109.64 538.284 113.309 540.759 116.04C543.234 118.685 546.348 120.008 550.103 120.008C553.772 120.008 556.844 118.685 559.319 116.04C561.879 113.395 563.159 109.725 563.159 105.032ZM696.367 68.552C705.412 68.552 712.495 71.2827 717.615 76.744C722.82 82.2053 725.423 89.672 725.423 99.144V141H700.335V102.472C700.335 98.632 699.268 95.6453 697.135 93.512C695.002 91.3787 692.1 90.312 688.431 90.312C684.762 90.312 681.86 91.3787 679.727 93.512C677.594 95.6453 676.527 98.632 676.527 102.472V141H651.439V102.472C651.439 98.632 650.372 95.6453 648.239 93.512C646.191 91.3787 643.332 90.312 639.663 90.312C635.908 90.312 632.964 91.3787 630.831 93.512C628.698 95.6453 627.631 98.632 627.631 102.472V141H602.543V69.192H627.631V78.664C629.85 75.592 632.708 73.16 636.207 71.368C639.791 69.4907 643.887 68.552 648.495 68.552C653.786 68.552 658.479 69.704 662.575 72.008C666.756 74.312 670.042 77.5547 672.431 81.736C674.991 77.8107 678.362 74.6533 682.543 72.264C686.724 69.7893 691.332 68.552 696.367 68.552Z" fill="#292524"/>
<path fill-rule="evenodd" clip-rule="evenodd" d="M63.0664 54.3652C63.5682 54.3652 64.0953 54.4091 64.6299 54.4912L64.7314 54.4971C72.3311 54.8854 78.1779 61.384 77.791 69.0117L76.5762 110.061H120.217L121.818 67.3945C122.193 60.005 129.009 54.3578 136.344 54.3652H168.705C170.709 54.3653 172 55.6508 172 58.6914L171.223 79.5361C171.223 82.5767 169.768 83.8515 167.764 83.8516H151.885L150.676 124.695C150.694 125.002 150.705 125.312 150.705 125.623C150.705 126.251 150.666 126.87 150.594 127.479L150.591 127.592C150.212 135.059 142.792 141.286 135.351 141.182C135.281 141.183 135.212 141.185 135.143 141.185H60.6094C60.0502 141.185 59.498 141.154 58.9541 141.097L58.126 141.055C50.5263 140.666 44.6786 134.168 45.0654 126.54L45.0684 126.438C45.0544 126.168 45.0479 125.896 45.0479 125.623C45.0479 124.947 45.0901 124.28 45.1738 123.626L46.668 83.8516H5.7334C2.24643 83.8516 0.000149512 82.5661 0 79.5254L1.35254 58.6807C1.35273 55.6401 3.88431 54.3653 7.37109 54.3652H63.0664Z" fill="#292524"/>
</svg>
